<svg id="aebaa996-ef14-468c-aa8d-7a6a86a557b9" data-name="A" xmlns="http://www.w3.org/2000/svg" viewBox="0 0 202.81 270.11"><defs><style>.ea0d6719-d481-49a5-bfa8-f9509598fb8c{fill:#fff;}.ea4ee90d-0c86-4525-b48a-e53867ad3d4c{fill:none;stroke:#fff;stroke-linecap:round;stroke-linejoin:round;}</style></defs><title>rune-info</title><path class="ea0d6719-d481-49a5-bfa8-f9509598fb8c" d="M135.57,68l-33.8,33.13v.34l33.63,33.63L169,101.46l-33.3-33.3Zm100.74,33.47L169,168.73,236.31,236,202.7,269.66l-67.3-67.3L68.16,269.6,34.54,236h0l67.24-67.23L34.5,101.46,135.4.55Z" transform="translate(-34 -0.05)"/><line class="ea4ee90d-0c86-4525-b48a-e53867ad3d4c" x1="101.4" y1="202.31" x2="168.7" y2="269.61"/><line class="ea4ee90d-0c86-4525-b48a-e53867ad3d4c" x1="135.04" y1="168.68" x2="202.31" y2="235.95"/><line class="ea4ee90d-0c86-4525-b48a-e53867ad3d4c" x1="101.74" y1="68.11" x2="135.04" y2="101.41"/><line class="ea4ee90d-0c86-4525-b48a-e53867ad3d4c" x1="101.4" y1="0.5" x2="202.31" y2="101.41"/><line class="ea4ee90d-0c86-4525-b48a-e53867ad3d4c" x1="101.4" y1="0.5" x2="0.5" y2="101.41"/><polyline class="ea4ee90d-0c86-4525-b48a-e53867ad3d4c" points="101.74 67.77 101.57 67.94 67.77 101.07"/><polyline class="ea4ee90d-0c86-4525-b48a-e53867ad3d4c" points="67.77 168.68 0.53 235.91 0.51 235.93"/><line class="ea4ee90d-0c86-4525-b48a-e53867ad3d4c" x1="101.4" y1="202.31" x2="34.16" y2="269.55"/><line class="ea4ee90d-0c86-4525-b48a-e53867ad3d4c" x1="0.54" y1="235.92" x2="34.16" y2="269.55"/><line class="ea4ee90d-0c86-4525-b48a-e53867ad3d4c" x1="202.31" y1="235.95" x2="168.7" y2="269.61"/><line class="ea4ee90d-0c86-4525-b48a-e53867ad3d4c" x1="67.77" y1="101.41" x2="101.4" y2="135.04"/><line class="ea4ee90d-0c86-4525-b48a-e53867ad3d4c" x1="135.04" y1="168.68" x2="202.31" y2="101.41"/><line class="ea4ee90d-0c86-4525-b48a-e53867ad3d4c" x1="135.04" y1="101.41" x2="101.4" y2="135.04"/><line class="ea4ee90d-0c86-4525-b48a-e53867ad3d4c" x1="0.5" y1="101.41" x2="67.77" y2="168.68"/></svg>