<svg id="f1fbc0d4-6a1b-40b2-abc0-4c285aa44ff0" data-name="B" xmlns="http://www.w3.org/2000/svg" viewBox="0 0 175.69 270.38"><defs><style>.a8dd1968-3b5b-4fab-937c-6cabefef3a2b{fill:#fff;}.e6066df0-c1d6-45e6-9439-9385a55cc0cd,.fd208ed6-019c-4baa-b5cc-addd4ec77ae1{fill:none;stroke:#fff;stroke-linecap:round;}.e6066df0-c1d6-45e6-9439-9385a55cc0cd{stroke-linejoin:bevel;}.fd208ed6-019c-4baa-b5cc-addd4ec77ae1{stroke-linejoin:round;}</style></defs><title>band-rune</title><path class="a8dd1968-3b5b-4fab-937c-6cabefef3a2b" d="M227.21,84.55l-101.06,51.5,100.92,51.5L52.54,270.05h0V.67Zm-135.44,32L146.18,88.7,91.52,62.86Zm.48,91.68,52.85-25.38L92,155.55Z" transform="translate(-52.02 -0.17)"/><line class="e6066df0-c1d6-45e6-9439-9385a55cc0cd" x1="0.5" y1="0.5" x2="0.5" y2="269.88"/><line class="e6066df0-c1d6-45e6-9439-9385a55cc0cd" x1="39.5" y1="62.69" x2="39.75" y2="116.38"/><line class="e6066df0-c1d6-45e6-9439-9385a55cc0cd" x1="39.5" y1="62.69" x2="94.16" y2="88.53"/><line class="e6066df0-c1d6-45e6-9439-9385a55cc0cd" x1="0.5" y1="0.5" x2="175.19" y2="84.38"/><line class="fd208ed6-019c-4baa-b5cc-addd4ec77ae1" x1="175.05" y1="187.38" x2="0.52" y2="269.88"/><line class="fd208ed6-019c-4baa-b5cc-addd4ec77ae1" x1="93.08" y1="182.68" x2="40.23" y2="208.06"/><line class="e6066df0-c1d6-45e6-9439-9385a55cc0cd" x1="175.19" y1="84.38" x2="74.13" y2="135.88"/><line class="e6066df0-c1d6-45e6-9439-9385a55cc0cd" x1="175.05" y1="187.38" x2="74.13" y2="135.88"/><line class="e6066df0-c1d6-45e6-9439-9385a55cc0cd" x1="93.08" y1="182.68" x2="39.99" y2="155.38"/><line class="e6066df0-c1d6-45e6-9439-9385a55cc0cd" x1="94.16" y1="88.53" x2="39.75" y2="116.38"/><line class="fd208ed6-019c-4baa-b5cc-addd4ec77ae1" x1="39.99" y1="155.38" x2="40.23" y2="208.06"/></svg>