<svg id="a3be940c-db43-427c-9585-b615e9576f1f" data-name="C" xmlns="http://www.w3.org/2000/svg" viewBox="0 0 170.23 271.72"><defs><style>.a5ce3530-13c9-4ecc-8c16-86e4acaeb059{fill:#fff;}.aa8f1510-09bb-4315-9ebc-132c75038f90,.fd0bd988-7d8b-4d19-8f21-5d0ad01d863b{fill:none;stroke:#fff;stroke-linecap:round;}.fd0bd988-7d8b-4d19-8f21-5d0ad01d863b{stroke-linejoin:bevel;}.aa8f1510-09bb-4315-9ebc-132c75038f90{stroke-linejoin:round;}</style></defs><title>rune-contact</title><polygon class="a5ce3530-13c9-4ecc-8c16-86e4acaeb059" points="0.5 270.41 0.5 1.17 115.52 56.4 139.14 0.5 169.17 14.7 130.29 106.29 39.5 63.37 40.22 208.04 130.86 165.44 169.73 257.03 139.7 271.22 116.09 215.32 0.55 270.55 0.5 270.55 0.5 270.41"/><line class="fd0bd988-7d8b-4d19-8f21-5d0ad01d863b" x1="0.5" y1="270.41" x2="0.5" y2="270.55"/><line class="fd0bd988-7d8b-4d19-8f21-5d0ad01d863b" x1="39.5" y1="63.37" x2="40.22" y2="208.04"/><line class="fd0bd988-7d8b-4d19-8f21-5d0ad01d863b" x1="39.5" y1="63.37" x2="130.29" y2="106.29"/><line class="fd0bd988-7d8b-4d19-8f21-5d0ad01d863b" x1="0.5" y1="1.17" x2="115.52" y2="56.4"/><line class="aa8f1510-09bb-4315-9ebc-132c75038f90" x1="169.17" y1="14.7" x2="130.29" y2="106.29"/><line class="aa8f1510-09bb-4315-9ebc-132c75038f90" x1="139.14" y1="0.5" x2="115.52" y2="56.4"/><line class="aa8f1510-09bb-4315-9ebc-132c75038f90" x1="139.14" y1="0.5" x2="169.17" y2="14.7"/><polyline class="fd0bd988-7d8b-4d19-8f21-5d0ad01d863b" points="0.5 270.41 0.5 1.17 0.5 1.03"/><line class="fd0bd988-7d8b-4d19-8f21-5d0ad01d863b" x1="40.22" y1="208.04" x2="130.86" y2="165.44"/><line class="fd0bd988-7d8b-4d19-8f21-5d0ad01d863b" x1="0.55" y1="270.55" x2="116.09" y2="215.32"/><line class="aa8f1510-09bb-4315-9ebc-132c75038f90" x1="169.73" y1="257.03" x2="130.86" y2="165.44"/><line class="aa8f1510-09bb-4315-9ebc-132c75038f90" x1="139.7" y1="271.22" x2="116.09" y2="215.32"/><line class="aa8f1510-09bb-4315-9ebc-132c75038f90" x1="139.7" y1="271.22" x2="169.73" y2="257.03"/></svg>